<svg width="50" height="64" viewBox="0 0 50 64" fill="none" xmlns="http://www.w3.org/2000/svg">
<path d="M46.1404 29.8134C44.7139 42.9939 36.9939 53.9928 25.0001 60.1086C13.0071 53.9932 5.28839 42.9949 3.85767 29.814C3.49321 23.9892 3.40725 18.1487 3.59995 12.3156C10.2221 11.4064 17.8572 9.30845 25.0006 4.3536C32.1522 9.31231 39.7871 11.4116 46.3998 12.3202C46.5933 18.1843 46.5063 24.0243 46.1404 29.8134Z" stroke="white" stroke-width="7" stroke-linecap="round" stroke-linejoin="round"/>
<path fill-rule="evenodd" clip-rule="evenodd" d="M18.75 25.8C18.75 22.1173 21.5475 19.1333 25 19.1333C28.4525 19.1333 31.25 22.1173 31.25 25.8V29.8H31.75C32.85 29.8 33.75 30.76 33.75 31.9333V41.2667C33.75 43.0267 32.4 44.4667 30.75 44.4667H19.25C17.6 44.4667 16.25 43.0267 16.25 41.2667V31.9333C16.25 30.76 17.15 29.8 18.25 29.8H18.75V25.8ZM28.75 25.8V29.8H21.25V25.8C21.25 23.5893 22.9275 21.8 25 21.8C27.0725 21.8 28.75 23.5893 28.75 25.8ZM25 32.8C24.5029 32.7994 24.0205 32.9795 23.6322 33.3105C23.2438 33.6415 22.9728 34.1037 22.8636 34.6209C22.7545 35.1382 22.8137 35.6797 23.0316 36.1563C23.2496 36.6328 23.6131 37.016 24.0625 37.2427V40.4667C24.0625 40.7319 24.1613 40.9862 24.3371 41.1738C24.5129 41.3613 24.7514 41.4667 25 41.4667C25.2486 41.4667 25.4871 41.3613 25.6629 41.1738C25.8387 40.9862 25.9375 40.7319 25.9375 40.4667V37.2427C26.3869 37.016 26.7504 36.6328 26.9684 36.1563C27.1863 35.6797 27.2455 35.1382 27.1364 34.6209C27.0272 34.1037 26.7562 33.6415 26.3678 33.3105C25.9795 32.9795 25.4971 32.7994 25 32.8Z" fill="white"/>
</svg>
